<?xml version="1.0" encoding="UTF-8" standalone="no"?>
<svg
   id="Capa_2"
   x="0px"
   y="0px"
   viewBox="0 0 60 60"
   xml:space="preserve"
   width="60"
   height="60">

<path
   style="fill:#ffc554;stroke-width:0.281038"
   d="m 48.91279,48.947948 c -12.44146,12.45003 -30.41269,14.72468 -40.0602003,5.06997 -4.9572,-4.96033 -6.97829,-12.42809 -5.54521,-20.48849 0.041,-0.22491 3.91968,-21.66026 -3.08781995,-31.6171999 -0.30735,-0.43632 -0.2905,-1.02444999 0.041,-1.44586999 0.0306,-0.0393 0.0632,-0.0753 0.0972,-0.10907 0.33825,-0.33906 0.84815995,-0.45094 1.29934995,-0.27439 0.0983,0.0379 10.3040703,3.86193999 34.0458203,2.29432999 0.46187,-0.0686 3.33899,-0.45544 6.92435,-0.0169 5.16257,0.62975 9.32724,2.69102 12.04563,5.95864 4.28603,5.1531899 6.0759,12.1438799 5.04036,19.6858599 -1.04117,7.57713 -4.87686,15.01425 -10.8005,20.94309 z"
   id="path172" />
<g
   style="opacity:0.1"
   id="g176"
   transform="matrix(0.2809409,0,0,0.28113416,-83.84246,-75.753882)">
	<path
   style="fill:#1b003f"
   d="m 362.537,461.602 c -17.645,-17.644 -24.838,-44.207 -19.738,-72.878 0.146,-0.8 13.952,-77.046 -10.991,-112.463 -0.124,-0.178 -0.23,-0.362 -0.324,-0.552 -18.392,-2.673 -26.981,-5.89 -27.151,-5.955 -1.606,-0.629 -3.421,-0.23 -4.625,0.976 -0.121,0.12 -0.236,0.248 -0.346,0.388 -1.18,1.5 -1.239,3.592 -0.146,5.143 24.943,35.417 11.137,111.663 10.991,112.463 -5.101,28.671 2.094,55.234 19.738,72.878 18.054,18.055 44.297,24.374 71.563,19.878 -14.854,-2.68 -28.335,-9.242 -38.971,-19.878 z"
   id="path174" />
</g>
<path
   style="fill:#f07c3c;stroke-width:0.281038"
   d="M 55.72224,52.120268 38.44803,34.833318 c 3.82192,-6.61536 2.89369,-12.5813 2.84902,-12.85035 -0.1902,-1.14422 -1.26648,-1.9134 -2.41188,-1.7301 -1.14427,0.18414 -1.92473,1.26454 -1.74717,2.41072 0.0301,0.19454 0.61386,4.24429 -1.79746,9.05955 l -7.04319,-7.04832 c 3.15019,-5.57095 1.10719,-11.67887 1.01869,-11.93667 -0.37814,-1.09783 -1.56877,-1.67922 -2.66837,-1.30587 -1.09848,0.37335 -1.68733,1.5693 -1.31902,2.67021 0.014,0.0413 1.24091,3.81078 -0.18458,7.4166 l -7.78909,-7.79472 c -0.82287,-0.82344 -2.15706,-0.82372 -2.97965,0 -0.82316,0.82344 -0.82316,2.15827 -2.9e-4,2.9817 l 13.02864,13.03817 c -4.45966,1.26567 -8.72237,-0.12342 -8.79851,-0.14901 -1.0982,-0.37474 -2.29416,0.2103 -2.67259,1.30924 -0.37899,1.10121 0.20593,2.3011 1.30638,2.68006 0.18261,0.0629 2.72906,0.91706 6.17002,0.91706 2.19134,0 4.74565,-0.34973 7.28255,-1.46724 l 7.07522,7.08037 c -8.04025,4.12479 -15.55261,2.58699 -15.68016,2.55943 -1.13303,-0.25048 -2.25708,0.46388 -2.51105,1.59825 -0.25425,1.13635 0.46018,2.2637 1.59575,2.5184 0.1753,0.0393 1.95703,0.42142 4.70379,0.42142 3.74916,0 9.29549,-0.71492 15.00112,-3.98564 l 11.86638,11.87512 c 0.41158,0.41186 0.95071,0.61764 1.49011,0.61764 0.53913,0 1.07853,-0.20578 1.48983,-0.61764 0.8226,-0.82317 0.8226,-2.158 -2.8e-4,-2.98143 z"
   id="path178" />
<g
   id="g180"
   transform="translate(-298.4345,-269.458)">
</g>
<g
   id="g182"
   transform="translate(-298.4345,-269.458)">
</g>
<g
   id="g184"
   transform="translate(-298.4345,-269.458)">
</g>
<g
   id="g186"
   transform="translate(-298.4345,-269.458)">
</g>
<g
   id="g188"
   transform="translate(-298.4345,-269.458)">
</g>
<g
   id="g190"
   transform="translate(-298.4345,-269.458)">
</g>
<g
   id="g192"
   transform="translate(-298.4345,-269.458)">
</g>
<g
   id="g194"
   transform="translate(-298.4345,-269.458)">
</g>
<g
   id="g196"
   transform="translate(-298.4345,-269.458)">
</g>
<g
   id="g198"
   transform="translate(-298.4345,-269.458)">
</g>
<g
   id="g200"
   transform="translate(-298.4345,-269.458)">
</g>
<g
   id="g202"
   transform="translate(-298.4345,-269.458)">
</g>
<g
   id="g204"
   transform="translate(-298.4345,-269.458)">
</g>
<g
   id="g206"
   transform="translate(-298.4345,-269.458)">
</g>
<g
   id="g208"
   transform="translate(-298.4345,-269.458)">
</g>
</svg>
