<?xml version="1.0" encoding="UTF-8" standalone="no"?>
<svg
   id="Capa_3"
   x="0px"
   y="0px"
   viewBox="0 0 39.999995 40.000011"
   xml:space="preserve"
   width="39.999996"
   height="40.000011">
<path
   style="fill:#f07c3c;stroke-width:0.263721"
   d="M 29.060893,7.7166576 C 37.331516,15.984987 39.258603,27.463433 33.365035,33.355255 27.471466,39.247337 15.989903,37.320156 7.7190204,29.052354 -0.55159519,20.784025 -2.4789491,9.3053174 3.415146,3.413497 9.3079275,-2.4783234 20.790544,-0.55167281 29.060893,7.7166576 Z"
   id="path217" />
<g
   style="opacity:0.1"
   id="g221"
   transform="matrix(0.26297669,0,0,0.26446808,-89.293867,-17.984879)">
	<path
   style="fill:#1b003f"
   d="m 390.631,177.855 c -31.45,-31.264 -38.78,-74.667 -16.367,-96.945 6.378,-6.341 14.481,-10.279 23.532,-11.959 -17.606,-2.91 -34.079,0.843 -45.26,11.959 -22.413,22.278 -15.084,65.681 16.366,96.945 22.5,22.365 51.244,32.451 73.99,28.229 -17.679,-2.922 -36.502,-12.565 -52.261,-28.229 z"
   id="path219" />
</g>
<path
   style="fill:#a53c29;stroke-width:0.263721"
   d="M 39.41797,36.610063 29.75542,26.950367 V 15.089762 c 0,-1.095426 -0.882813,-1.98351 -1.972327,-1.98351 -1.089514,0 -1.972327,0.888084 -1.972327,1.98351 v 7.916857 L 18.29989,15.498101 V 9.3301768 c 0,-1.0954264 -0.882813,-1.9835106 -1.972327,-1.9835106 -1.089514,0 -1.972321,0.8880842 -1.972321,1.9835106 V 11.554618 L 9.8265144,7.0271894 C 9.0544208,6.2549418 7.8052804,6.2586452 7.0371269,7.0353894 6.2692335,7.8123963 6.2729135,9.0683553 7.0455269,9.8403376 L 11.545055,14.33894 H 9.3321075 c -1.0892469,0 -1.9720605,0.888084 -1.9720605,1.983775 0,1.095427 0.8830736,1.983511 1.9725872,1.983246 l 6.1804748,-2.64e-4 4.707815,4.706475 h -8.265622 c -1.089514,0 -1.9723276,0.88808 -1.9723276,1.983507 0,1.095427 0.8828136,1.983508 1.9723276,1.983508 h 12.233677 l 12.447737,12.444017 c 0.384733,0.384806 0.887547,0.576806 1.39036,0.576806 0.506754,0 1.013247,-0.19518 1.398767,-0.585006 0.768687,-0.776741 0.765,-2.032694 -0.0079,-2.804941 z"
   id="path223" />









<g
   id="g249"
   transform="translate(-339.5505,-68.003972)">
</g>
<g
   id="g251"
   transform="translate(-339.5505,-68.003972)">
</g>
<g
   id="g253"
   transform="translate(-339.5505,-68.003972)">
</g>
<g
   id="g255"
   transform="translate(-339.5505,-68.003972)">
</g>
<g
   id="g257"
   transform="translate(-339.5505,-68.003972)">
</g>
<g
   id="g259"
   transform="translate(-339.5505,-68.003972)">
</g>
<g
   id="g261"
   transform="translate(-339.5505,-68.003972)">
</g>
<g
   id="g263"
   transform="translate(-339.5505,-68.003972)">
</g>
<g
   id="g265"
   transform="translate(-339.5505,-68.003972)">
</g>
<g
   id="g267"
   transform="translate(-339.5505,-68.003972)">
</g>
<g
   id="g269"
   transform="translate(-339.5505,-68.003972)">
</g>
<g
   id="g271"
   transform="translate(-339.5505,-68.003972)">
</g>
<g
   id="g273"
   transform="translate(-339.5505,-68.003972)">
</g>
<g
   id="g275"
   transform="translate(-339.5505,-68.003972)">
</g>
<g
   id="g277"
   transform="translate(-339.5505,-68.003972)">
</g>
</svg>
