<?xml version="1.0" encoding="UTF-8" standalone="no"?>
<svg
   xmlns="http://www.w3.org/2000/svg"
   version="1.1"
   id="Capa_1"
   x="0px"
   y="0px"
   viewBox="0 0 60 60"
   xmlSpace="preserve"
   width="60"
   height="60">
<path
   style="fill:#f7931e;stroke-width:0.186256"
   d="m 29.23686,59.999813 c -0.168079,0 -0.335973,-0.04474 -0.484965,-0.133101 -2.716324,-1.610319 -5.329243,-4.989143 -7.168294,-9.270658 -1.748988,-4.070913 -2.263974,-7.684114 -1.531059,-10.739264 -0.891543,0.215657 -1.843127,0.325171 -2.829365,0.325171 -2.366638,0 -5.012728,-0.626568 -7.8645161,-1.862106 -4.2546106,-1.842825 -7.6163813,-4.461043 -9.22323385,-7.183534 -0.1575164,-0.266764 -0.17882744,-0.59362 -0.05763247,-0.879104 0.12138027,-0.285297 0.37062681,-0.49459 0.67046392,-0.562732 0.8020364,-0.182523 1.6902436,-0.274814 2.6396042,-0.274814 2.1679817,0 4.6585939,0.48654 7.2022063,1.407017 C 10.039873,30.155004 9.5167332,29.473773 9.0347331,28.801902 5.3896182,23.720843 3.6886264,18.917781 3.9790125,14.525815 c 0.019087,-0.28773 0.1641877,-0.552248 0.3956442,-0.721105 0.1651142,-0.120184 0.3615464,-0.183272 0.5609437,-0.183272 0.080426,0 0.1614079,0.0103 0.2409074,0.03089 4.2079117,1.103935 8.1797342,4.207383 11.8050202,9.224419 -0.01538,-0.511626 -0.02298,-0.972893 -0.02298,-1.409638 0,-8.531768 2.063094,-17.0049417 5.133738,-21.08502705 C 22.273894,0.14152533 22.556312,0 22.855593,0 c 0.299466,0 0.581698,0.14133813 0.76312,0.38226815 3.070644,4.07952375 5.133923,12.55269785 5.133923,21.08502785 l -0.0011,0.206859 c 0.705118,-0.809091 1.456008,-1.611816 2.232286,-2.391329 6.439455,-6.466172 13.544372,-10.4839193 19.492932,-11.0230634 0.02835,-0.00243 0.05726,-0.00374 0.08561,-0.00374 0.253323,0 0.497752,0.1014639 0.678432,0.2841738 0.20088,0.2033023 0.302061,0.4865402 0.276303,0.7727733 -0.539633,5.9721443 -4.540364,13.1038223 -10.976114,19.5670003 -0.677506,0.680107 -1.375025,1.343554 -2.073472,1.97162 4.250534,0.03182 8.757912,0.593807 12.692301,1.581676 3.631031,0.912052 6.553239,2.142911 8.451033,3.559475 0.244058,0.182335 0.388417,0.470815 0.389158,0.777827 5.56e-4,0.306826 -0.142876,0.595867 -0.386563,0.779138 -4.489403,3.376016 -14.223546,5.142462 -21.518594,5.142462 -0.464581,0 -0.946951,-0.0086 -1.518643,-0.02733 l 0.135834,0.0951 c 0.04522,0.03145 0.09043,0.0629 0.135465,0.09566 5.059056,3.659815 8.187331,7.673069 9.297359,11.928189 0.0732,0.279868 0.01853,0.577895 -0.148807,0.812834 -0.167153,0.234753 -0.429186,0.381894 -0.714939,0.401176 -0.320592,0.02134 -0.645817,0.0322 -0.967521,0.0322 -4.107287,-1.87e-4 -8.565928,-1.718896 -13.252133,-5.108578 -0.672502,-0.486727 -1.35075,-1.012205 -2.01621,-1.56202 1.328327,3.701936 1.728233,7.213112 1.12615,9.886555 -0.06783,0.301209 -0.273708,0.551687 -0.553902,0.674305 -0.121936,0.05316 -0.251471,0.07956 -0.380634,0.07956 z"
   id="path95" />
<g
   style="opacity:0.1"
   id="g99"
   transform="matrix(0.18531341,0,0,0.18720282,-3.7058255e-5,-0.93601408)">
	<path
   style="fill:#1b003f"
   d="m 137.597,254.055 c -9.439,-21.746 -12.218,-41.047 -8.262,-57.367 -4.811,1.152 -9.946,1.737 -15.268,1.737 -12.771,0 -27.05,-3.347 -42.439,-9.948 -15.88,-6.809 -29.449,-15.6 -39.18,-25.185 -4.923,-0.75 -9.673,-1.137 -14.165,-1.137 -5.123,0 -9.916,0.494 -14.244,1.468 -1.618,0.364 -2.963,1.482 -3.618,3.006 -0.654,1.525 -0.539,3.27 0.311,4.696 8.671,14.542 26.811,28.529 49.771,38.373 15.39,6.601 29.669,9.947 42.439,9.947 5.321,0 10.457,-0.584 15.268,-1.737 -3.955,16.32 -1.177,35.621 8.262,57.367 9.924,22.87 24.023,40.919 38.682,49.522 0.805,0.472 1.71,0.711 2.617,0.711 0.697,0 1.396,-0.141 2.055,-0.426 1.513,-0.655 2.623,-1.993 2.989,-3.602 1.859,-8.173 1.939,-17.815 0.331,-28.272 -9.725,-9.687 -18.648,-23.249 -25.549,-39.153 z"
   id="path97" />
</g>
<path
   style="fill:#a53c29;stroke-width:0.186256"
   d="m 42.680051,36.591786 c -0.05263,-0.77371 -0.71531,-1.357595 -1.481581,-1.304804 L 25.492047,36.374443 40.976835,20.824816 c 0.544451,-0.546633 0.547046,-1.435472 0.0059,-1.985473 -0.541115,-0.550002 -1.421168,-0.552436 -1.965434,-0.006 L 23.370549,34.545659 23.912776,17.403871 c 0.02465,-0.775019 -0.577437,-1.423303 -1.34482,-1.448013 -0.767753,-0.02265 -1.408938,0.583324 -1.433399,1.358343 l -0.559646,17.694785 -5.259566,-8.375641 c -0.41121,-0.654836 -1.269767,-0.848778 -1.918179,-0.433375 -0.648226,0.415403 -0.840211,1.282901 -0.429,1.937736 l 6.490602,10.336404 -8.924694,8.962522 c -0.5444509,0.546632 -0.5470453,1.435658 -0.0059,1.985473 0.271669,0.276124 0.628768,0.414093 0.985682,0.414093 0.354319,0 0.708638,-0.136097 0.979752,-0.40829 l 8.929141,-8.96664 11.459041,7.35576 c 0.231085,0.148452 0.489227,0.219214 0.744218,0.219214 0.459577,0 0.909518,-0.230259 1.174331,-0.651091 0.411767,-0.654461 0.220338,-1.522146 -0.427703,-1.938111 l -9.664095,-6.203527 16.680061,-1.154854 c 0.765715,-0.05316 1.343893,-0.723351 1.291449,-1.496873 z"
   id="path101" />



<g
   id="g111"
   transform="translate(-1.9996103e-4,-5)">
</g>
<g
   id="g113"
   transform="translate(-1.9996103e-4,-5)">
</g>
<g
   id="g115"
   transform="translate(-1.9996103e-4,-5)">
</g>
<g
   id="g117"
   transform="translate(-1.9996103e-4,-5)">
</g>
<g
   id="g119"
   transform="translate(-1.9996103e-4,-5)">
</g>
<g
   id="g121"
   transform="translate(-1.9996103e-4,-5)">
</g>
<g
   id="g123"
   transform="translate(-1.9996103e-4,-5)">
</g>
<g
   id="g125"
   transform="translate(-1.9996103e-4,-5)">
</g>
<g
   id="g127"
   transform="translate(-1.9996103e-4,-5)">
</g>
<g
   id="g129"
   transform="translate(-1.9996103e-4,-5)">
</g>
<g
   id="g131"
   transform="translate(-1.9996103e-4,-5)">
</g>
<g
   id="g133"
   transform="translate(-1.9996103e-4,-5)">
</g>
<g
   id="g135"
   transform="translate(-1.9996103e-4,-5)">
</g>
<g
   id="g137"
   transform="translate(-1.9996103e-4,-5)">
</g>
<g
   id="g139"
   transform="translate(-1.9996103e-4,-5)">
</g>
</svg>
