<?xml version="1.0" encoding="UTF-8" standalone="no"?>
<svg
   id="Capa_4"
   x="0px"
   y="0px"
   viewBox="0 0 30.000005 30.000322"
   width="30.000006"
   height="30.000322"
   >

<path
   style="fill:#d16605;stroke-width:0.197787"
   d="M 21.789109,5.7889667 C 27.990658,11.991959 29.435274,20.603414 25.016335,25.023145 20.597594,29.443259 11.988813,27.997828 5.7874608,21.794835 -0.41349483,15.59203 -1.8585067,6.9809652 2.5602344,2.5608515 6.9787776,-1.8592696 15.588351,-0.41383836 21.789109,5.7889667 Z"
   id="path294" />
<g
   style="opacity:0.1"
   id="g298"
   transform="matrix(0.19835442,0,0,0.19722102,-10.897121,-69.991441)">
	<path
   style="fill:#1b003f"
   d="M 105.718,454.546 C 74.455,423.095 67.17,379.433 89.447,357.021 c 0.362,-0.364 0.745,-0.699 1.118,-1.047 -8.727,1.759 -16.539,5.679 -22.721,11.899 -22.277,22.412 -14.992,66.074 16.27,97.525 30.757,30.941 73.242,38.515 95.825,17.417 -22.714,4.578 -51.633,-5.545 -74.221,-28.269 z"
   id="path296" />
</g>
<path
   style="fill:#a53c29;stroke-width:0.197787"
   d="m 29.567578,27.477552 -7.248863,-7.251028 v -8.9061 c 0,-0.816893 -0.665876,-1.4791589 -1.487658,-1.4791589 -0.821783,0 -1.487658,0.6622659 -1.487658,1.4791589 v 5.930045 L 13.72977,11.635192 V 6.9995052 c 0,-0.8168932 -0.665876,-1.4791512 -1.487658,-1.4791512 -0.821783,0 -1.487658,0.662258 -1.487658,1.4791512 v 1.659414 L 7.3806437,5.2842763 C 6.8014489,4.7048408 5.8594632,4.7022758 5.2766984,5.2782763 4.6939329,5.8541643 4.6911557,6.7907575 5.2703234,7.370193 l 3.3952323,3.396348 -1.6681601,1.95e-4 c -0.8217824,0 -1.4876585,0.66207 -1.4876585,1.479159 0,0.816885 0.6660741,1.479158 1.4876585,1.479158 l 4.6254274,-2.02e-4 3.547568,3.548605 H 8.964677 c -0.8217824,0 -1.4876575,0.662266 -1.4876575,1.479151 0,0.816894 0.6658751,1.479167 1.4876575,1.479167 h 9.163181 l 9.329204,9.3321 c 0.290785,0.290903 0.673015,0.436448 1.055046,0.436448 0.379255,0 0.758505,-0.143378 1.048701,-0.430133 0.582965,-0.576481 0.58594,-1.512886 0.0068,-2.092322 z"
   id="path300" />






<g
   id="g318"
   transform="translate(-54.937627,-354.88833)">
</g>
<g
   id="g320"
   transform="translate(-54.937627,-354.88833)">
</g>
<g
   id="g322"
   transform="translate(-54.937627,-354.88833)">
</g>
<g
   id="g324"
   transform="translate(-54.937627,-354.88833)">
</g>
<g
   id="g326"
   transform="translate(-54.937627,-354.88833)">
</g>
<g
   id="g328"
   transform="translate(-54.937627,-354.88833)">
</g>
<g
   id="g330"
   transform="translate(-54.937627,-354.88833)">
</g>
<g
   id="g332"
   transform="translate(-54.937627,-354.88833)">
</g>
<g
   id="g334"
   transform="translate(-54.937627,-354.88833)">
</g>
<g
   id="g336"
   transform="translate(-54.937627,-354.88833)">
</g>
<g
   id="g338"
   transform="translate(-54.937627,-354.88833)">
</g>
<g
   id="g340"
   transform="translate(-54.937627,-354.88833)">
</g>
<g
   id="g342"
   transform="translate(-54.937627,-354.88833)">
</g>
<g
   id="g344"
   transform="translate(-54.937627,-354.88833)">
</g>
<g
   id="g346"
   transform="translate(-54.937627,-354.88833)">
</g>
</svg>
